<?xml version="1.0" encoding="UTF-8"?>
<!DOCTYPE svg PUBLIC "-//W3C//DTD SVG 1.1//EN" "http://www.w3.org/Graphics/SVG/1.1/DTD/svg11.dtd">
<svg xmlns="http://www.w3.org/2000/svg" version="1.1" width="138px" height="133px" style="shape-rendering:geometricPrecision; text-rendering:geometricPrecision; image-rendering:optimizeQuality; fill-rule:evenodd; clip-rule:evenodd" xmlns:xlink="http://www.w3.org/1999/xlink">
<g><path style="opacity:1" fill="#fbfefe" d="M 42.5,-0.5 C 59.5,-0.5 76.5,-0.5 93.5,-0.5C 93.5,0.166667 93.5,0.833333 93.5,1.5C 94.3764,1.36912 95.0431,1.70245 95.5,2.5C 96.1062,4.70937 96.7728,6.87604 97.5,9C 101.974,9.0317 106.474,8.86504 111,8.5C 115.194,8.31007 119.194,8.97674 123,10.5C 123.667,11.8333 124.333,13.1667 125,14.5C 125.5,24.1609 125.666,33.8276 125.5,43.5C 130.073,42.7688 134.073,43.7688 137.5,46.5C 137.5,57.1667 137.5,67.8333 137.5,78.5C 133.991,81.1149 129.991,82.1149 125.5,81.5C 125.666,89.1739 125.5,96.8406 125,104.5C 124.252,106.751 122.752,108.084 120.5,108.5C 120.389,109.117 120.056,109.617 119.5,110C 85.1667,110.667 50.8333,110.667 16.5,110C 13.4937,109.668 10.6604,108.834 8,107.5C 7.03879,76.7934 7.37212,46.1267 9,15.5C 10.4798,12.3374 12.9798,10.504 16.5,10C 25.0787,9.18434 33.5787,9.35101 42,10.5C 41.5914,6.79159 41.758,3.12492 42.5,-0.5 Z"/></g>
<g><path style="opacity:1" fill="#5ce1e6" d="M 93.5,1.5 C 94.2186,3.76375 94.552,6.09709 94.5,8.5C 86.16,8.3336 77.8267,8.50027 69.5,9C 64.4159,9.00418 61.0826,11.3375 59.5,16C 60.3672,19.1052 60.7006,22.2719 60.5,25.5C 54.8552,26.1342 49.1886,26.4676 43.5,26.5C 43.1834,17.9149 43.5168,9.41495 44.5,1C 60.9074,0.182773 77.2407,0.34944 93.5,1.5 Z"/></g>
<g><path style="opacity:1" fill="#5ce1e6" d="M 120.5,108.5 C 83.7718,108.981 47.1051,108.481 10.5,107C 10,106.5 9.5,106 9,105.5C 8.80271,76.1652 9.13604,46.8319 10,17.5C 11.152,15.3513 12.652,13.518 14.5,12C 20.8333,11.3333 27.1667,11.3333 33.5,12C 28.6101,12.2928 24.4435,14.1261 21,17.5C 19.1802,23.7016 21.3469,27.5349 27.5,29C 58.1667,29.3333 88.8333,29.6667 119.5,30C 123.016,36.9966 124.349,44.4966 123.5,52.5C 107.138,52.8043 90.8047,52.471 74.5,51.5C 64.9873,51.6429 61.3207,56.4762 63.5,66C 63.5715,69.8643 63.9049,73.6977 64.5,77.5C 64.8757,79.3829 65.8757,80.8829 67.5,82C 86.1482,81.6455 104.815,81.4789 123.5,81.5C 123.666,89.5069 123.5,97.5069 123,105.5C 121.955,106.373 121.122,107.373 120.5,108.5 Z"/></g>
<g><path style="opacity:1" fill="#5ce1e6" d="M 63.5,11.5 C 76.8375,11.3334 90.1708,11.5001 103.5,12C 105.333,12.5 106.5,13.6667 107,15.5C 107.499,19.1516 107.665,22.8183 107.5,26.5C 92.1667,26.1667 76.8333,25.8333 61.5,25.5C 60.962,20.5329 61.6287,15.8662 63.5,11.5 Z"/></g>
<g><path style="opacity:1" fill="#5ce1e5" d="M 109.5,11.5 C 113.215,11.423 116.881,11.7564 120.5,12.5C 121.295,16.7853 121.628,21.1186 121.5,25.5C 117.785,25.423 114.119,25.7564 110.5,26.5C 110.726,21.4376 110.392,16.4376 109.5,11.5 Z"/></g>
<g><path style="opacity:1" fill="#5ce1e5" d="M 41.5,12.5 C 42.4861,16.97 42.8195,21.6367 42.5,26.5C 36.0273,26.9194 29.694,26.2528 23.5,24.5C 21.6787,22.5275 21.512,20.1942 23,17.5C 28.8974,14.4433 35.0641,12.7767 41.5,12.5 Z"/></g>
<g><path style="opacity:1" fill="#5de1e6" d="M 124.5,44.5 C 127.518,44.3354 130.518,44.502 133.5,45C 134.333,45.8333 135.167,46.6667 136,47.5C 136.819,57.7438 136.652,67.9105 135.5,78C 117.421,79.3408 99.2548,80.1741 81,80.5C 76.8333,80.3333 72.6667,80.1667 68.5,80C 68,79.5 67.5,79 67,78.5C 66.3333,71.5 66.3333,64.5 67,57.5C 67.8333,56.6667 68.6667,55.8333 69.5,55C 89.1667,54.6667 108.833,54.3333 128.5,54C 127.234,53.6905 126.067,53.1905 125,52.5C 124.503,49.854 124.336,47.1873 124.5,44.5 Z"/></g>
<g><path style="opacity:1" fill="#f3fcfd" d="M 84.5,60.5 C 92.6478,61.4544 95.1478,65.7877 92,73.5C 85.1516,78.1637 80.9849,76.3304 79.5,68C 79.8311,64.5199 81.4978,62.0199 84.5,60.5 Z"/></g>
<g><path style="opacity:1" fill="#63e2e7" d="M 84.5,62.5 C 90.3034,62.81 92.4701,65.81 91,71.5C 88,75.5 85,75.5 82,71.5C 80.9271,67.9003 81.7605,64.9003 84.5,62.5 Z"/></g>
</svg>
